<svg xmlns="http://www.w3.org/2000/svg" viewBox="0 0 32 32" fill="none">
  <rect width="32" height="32" rx="8" fill="#0a0a0a"/>
  <path d="M16 6C13.8 6 12 7.8 12 10C12 11.9 13.2 13.5 15 13.9V18H11C10.4 18 10 18.4 10 19C10 19.6 10.4 20 11 20H15V24.5C13.6 24.2 10.5 23.1 9.1 21.5C8.7 21 8 21.1 7.6 21.5C7.2 21.9 7.3 22.6 7.7 23C9.8 25.3 13.6 26.5 16 26.5C18.4 26.5 22.2 25.3 24.3 23C24.7 22.6 24.8 21.9 24.4 21.5C24 21.1 23.3 21 22.9 21.5C21.5 23.1 18.4 24.2 17 24.5V20H21C21.6 20 22 19.6 22 19C22 18.4 21.6 18 21 18H17V13.9C18.8 13.5 20 11.9 20 10C20 7.8 18.2 6 16 6ZM16 12C14.9 12 14 11.1 14 10C14 8.9 14.9 8 16 8C17.1 8 18 8.9 18 10C18 11.1 17.1 12 16 12Z" fill="#34d399"/>
</svg>
